{
    "accessors" : [
        {
            "bufferView" : 0,
            "componentType" : 5123,
            "count" : 5214,
            "max" : [
                2643
            ],
            "min" : [
                0
            ],
            "type" : "SCALAR"
        },
        {
            "bufferView" : 1,
            "componentType" : 5126,
            "count" : 2644,
            "max" : [
                2.278637647628784,
                16.979236602783203,
                2.1969850063323975
            ],
            "min" : [
                -2.278637647628784,
                -1.1081434488296509,
                -1.6892406940460205
            ],
            "type" : "VEC3"
        },
        {
            "bufferView" : 2,
            "componentType" : 5126,
            "count" : 2644,
            "max" : [
                1.0,
                1.0,
                1.0
            ],
            "min" : [
                -1.0,
                -1.0,
                -1.0
            ],
            "type" : "VEC3"
        },
        {
            "bufferView" : 3,
            "componentType" : 5123,
            "count" : 10008,
            "max" : [
                5125
            ],
            "min" : [
                0
            ],
            "type" : "SCALAR"
        },
        {
            "bufferView" : 4,
            "componentType" : 5126,
            "count" : 5126,
            "max" : [
                1.1700078248977661,
                2.574756622314453,
                1.0251507759094238
            ],
            "min" : [
                -1.1752092838287354,
                -8.486333847045898,
                -1.0
            ],
            "type" : "VEC3"
        },
        {
            "bufferView" : 5,
            "componentType" : 5126,
            "count" : 5126,
            "max" : [
                1.0,
                1.0,
                1.0
            ],
            "min" : [
                -1.0,
                -1.0,
                -1.0
            ],
            "type" : "VEC3"
        },
        {
            "bufferView" : 6,
            "componentType" : 5123,
            "count" : 15225,
            "max" : [
                9039
            ],
            "min" : [
                0
            ],
            "type" : "SCALAR"
        },
        {
            "bufferView" : 7,
            "componentType" : 5126,
            "count" : 9040,
            "max" : [
                1.843550682067871,
                1.4417500495910645,
                9.345727920532227
            ],
            "min" : [
                -1.917961597442627,
                -1.3615756034851074,
                -18.316499710083008
            ],
            "type" : "VEC3"
        },
        {
            "bufferView" : 8,
            "componentType" : 5126,
            "count" : 9040,
            "max" : [
                1.0,
                1.0,
                1.0
            ],
            "min" : [
                -1.0,
                -1.0,
                -1.0
            ],
            "type" : "VEC3"
        },
        {
            "bufferView" : 9,
            "componentType" : 5123,
            "count" : 246,
            "max" : [
                51
            ],
            "min" : [
                0
            ],
            "type" : "SCALAR"
        },
        {
            "bufferView" : 10,
            "componentType" : 5126,
            "count" : 52,
            "max" : [
                8.470542907714844,
                0.45999079942703247,
                1.8616001605987549
            ],
            "min" : [
                -7.905420303344727,
                -0.45915764570236206,
                -1.9778411388397217
            ],
            "type" : "VEC3"
        },
        {
            "bufferView" : 11,
            "componentType" : 5126,
            "count" : 52,
            "max" : [
                0.1671498715877533,
                0.999969482421875,
                0.9859004616737366
            ],
            "min" : [
                -0.7857600450515747,
                -0.999969482421875,
                -0.9859004616737366
            ],
            "type" : "VEC3"
        },
        {
            "bufferView" : 12,
            "componentType" : 5123,
            "count" : 990,
            "max" : [
                193
            ],
            "min" : [
                0
            ],
            "type" : "SCALAR"
        },
        {
            "bufferView" : 13,
            "componentType" : 5126,
            "count" : 194,
            "max" : [
                0.49727630615234375,
                1.1760932207107544,
                5.056053161621094
            ],
            "min" : [
                -17.409122467041016,
                -0.684260368347168,
                -0.5749151706695557
            ],
            "type" : "VEC3"
        },
        {
            "bufferView" : 14,
            "componentType" : 5126,
            "count" : 194,
            "max" : [
                0.9968565702438354,
                1.0,
                0.9851069450378418
            ],
            "min" : [
                -0.9864192605018616,
                -1.0,
                -0.9864192605018616
            ],
            "type" : "VEC3"
        },
        {
            "bufferView" : 15,
            "componentType" : 5123,
            "count" : 15012,
            "max" : [
                8431
            ],
            "min" : [
                0
            ],
            "type" : "SCALAR"
        },
        {
            "bufferView" : 16,
            "componentType" : 5126,
            "count" : 8432,
            "max" : [
                1.693454623222351,
                1.0,
                2.1356120109558105
            ],
            "min" : [
                -1.8322266340255737,
                -228.2156219482422,
                -1.7788641452789307
            ],
            "type" : "VEC3"
        },
        {
            "bufferView" : 17,
            "componentType" : 5126,
            "count" : 8432,
            "max" : [
                1.0,
                1.0,
                1.0
            ],
            "min" : [
                -1.0,
                -1.0,
                -1.0
            ],
            "type" : "VEC3"
        },
        {
            "bufferView" : 18,
            "componentType" : 5126,
            "count" : 1,
            "max" : [
                -0.02761564776301384,
                0.15837682783603668,
                -5.184207111597061e-05,
                0.0,
                0.00220401119440794,
                0.0003188092086929828,
                -0.20005393028259277,
                0.0,
                -0.15836694836616516,
                -0.027614595368504524,
                -0.0017887516878545284,
                0.0,
                -0.005346194375306368,
                1.357804298400879,
                -0.01928308606147766,
                1.0
            ],
            "min" : [
                -0.02761564776301384,
                0.15837682783603668,
                -5.184207111597061e-05,
                0.0,
                0.00220401119440794,
                0.0003188092086929828,
                -0.20005393028259277,
                0.0,
                -0.15836694836616516,
                -0.027614595368504524,
                -0.0017887516878545284,
                0.0,
                -0.005346194375306368,
                1.357804298400879,
                -0.01928308606147766,
                1.0
            ],
            "type" : "MAT4"
        },
        {
            "bufferView" : 19,
            "componentType" : 5126,
            "count" : 1,
            "max" : [
                0.012599611654877663,
                -0.06875931471586227,
                -2.2558368073077872e-05,
                0.0,
                -0.0009571023401804268,
                -0.00014684138295706362,
                -0.08698711544275284,
                0.0,
                0.06875503808259964,
                0.012599081732332706,
                -0.000777767098043114,
                0.0,
                0.007240257691591978,
                0.0017314261058345437,
                0.015591845847666264,
                1.0
            ],
            "min" : [
                0.012599611654877663,
                -0.06875931471586227,
                -2.2558368073077872e-05,
                0.0,
                -0.0009571023401804268,
                -0.00014684138295706362,
                -0.08698711544275284,
                0.0,
                0.06875503808259964,
                0.012599081732332706,
                -0.000777767098043114,
                0.0,
                0.007240257691591978,
                0.0017314261058345437,
                0.015591845847666264,
                1.0
            ],
            "type" : "MAT4"
        }
    ],
    "asset" : {
        "generator" : "Khronos Blender glTF 2.0 exporter",
        "version" : "2.0"
    },
    "bufferViews" : [
        {
            "buffer" : 0,
            "byteLength" : 10428,
            "byteOffset" : 0,
            "target" : 34963
        },
        {
            "buffer" : 0,
            "byteLength" : 31728,
            "byteOffset" : 10428,
            "target" : 34962
        },
        {
            "buffer" : 0,
            "byteLength" : 31728,
            "byteOffset" : 42156,
            "target" : 34962
        },
        {
            "buffer" : 0,
            "byteLength" : 20016,
            "byteOffset" : 73884,
            "target" : 34963
        },
        {
            "buffer" : 0,
            "byteLength" : 61512,
            "byteOffset" : 93900,
            "target" : 34962
        },
        {
            "buffer" : 0,
            "byteLength" : 61512,
            "byteOffset" : 155412,
            "target" : 34962
        },
        {
            "buffer" : 0,
            "byteLength" : 30450,
            "byteOffset" : 216924,
            "target" : 34963
        },
        {
            "buffer" : 0,
            "byteLength" : 108480,
            "byteOffset" : 247376,
            "target" : 34962
        },
        {
            "buffer" : 0,
            "byteLength" : 108480,
            "byteOffset" : 355856,
            "target" : 34962
        },
        {
            "buffer" : 0,
            "byteLength" : 492,
            "byteOffset" : 464336,
            "target" : 34963
        },
        {
            "buffer" : 0,
            "byteLength" : 624,
            "byteOffset" : 464828,
            "target" : 34962
        },
        {
            "buffer" : 0,
            "byteLength" : 624,
            "byteOffset" : 465452,
            "target" : 34962
        },
        {
            "buffer" : 0,
            "byteLength" : 1980,
            "byteOffset" : 466076,
            "target" : 34963
        },
        {
            "buffer" : 0,
            "byteLength" : 2328,
            "byteOffset" : 468056,
            "target" : 34962
        },
        {
            "buffer" : 0,
            "byteLength" : 2328,
            "byteOffset" : 470384,
            "target" : 34962
        },
        {
            "buffer" : 0,
            "byteLength" : 30024,
            "byteOffset" : 472712,
            "target" : 34963
        },
        {
            "buffer" : 0,
            "byteLength" : 101184,
            "byteOffset" : 502736,
            "target" : 34962
        },
        {
            "buffer" : 0,
            "byteLength" : 101184,
            "byteOffset" : 603920,
            "target" : 34962
        },
        {
            "buffer" : 0,
            "byteLength" : 64,
            "byteOffset" : 705104
        },
        {
            "buffer" : 0,
            "byteLength" : 64,
            "byteOffset" : 705168
        }
    ],
    "buffers" : [
        {
            "byteLength" : 705232,
            "uri" : "braccioV4.bin"
        }
    ],
    "meshes" : [
        {
            "name" : "Cube.019",
            "primitives" : [
                {
                    "attributes" : {
                        "NORMAL" : 2,
                        "POSITION" : 1
                    },
                    "indices" : 0
                }
            ]
        },
        {
            "name" : "Cylinder.081",
            "primitives" : [
                {
                    "attributes" : {
                        "NORMAL" : 5,
                        "POSITION" : 4
                    },
                    "indices" : 3
                }
            ]
        },
        {
            "name" : "Cylinder.090",
            "primitives" : [
                {
                    "attributes" : {
                        "NORMAL" : 8,
                        "POSITION" : 7
                    },
                    "indices" : 6
                }
            ]
        },
        {
            "name" : "Cylinder.001",
            "primitives" : [
                {
                    "attributes" : {
                        "NORMAL" : 11,
                        "POSITION" : 10
                    },
                    "indices" : 9
                }
            ]
        },
        {
            "name" : "Cylinder.091",
            "primitives" : [
                {
                    "attributes" : {
                        "NORMAL" : 14,
                        "POSITION" : 13
                    },
                    "indices" : 12
                }
            ]
        },
        {
            "name" : "Cylinder.094",
            "primitives" : [
                {
                    "attributes" : {
                        "NORMAL" : 17,
                        "POSITION" : 16
                    },
                    "indices" : 15
                }
            ]
        }
    ],
    "nodes" : [
        {
            "children" : [
                8
            ],
            "name" : "Armature",
            "rotation" : [
                0.4602397084236145,
                0.5421005487442017,
                -0.5372763872146606,
                0.4534761905670166
            ],
            "scale" : [
                6.220069408416748,
                6.220198631286621,
                4.99851131439209
            ],
            "translation" : [
                0.04909515380859375,
                -0.0465758740901947,
                8.206561088562012
            ]
        },
        {
            "children" : [
                9
            ],
            "name" : "Armature.001",
            "rotation" : [
                0.060969363898038864,
                -0.7093631029129028,
                -0.06199733912944794,
                0.6994590759277344
            ],
            "scale" : [
                6.301774024963379,
                6.426125526428223,
                13.933646202087402
            ],
            "translation" : [
                -0.04408559203147888,
                4.380302906036377,
                1.773773431777954
            ]
        },
        {
            "children" : [
                3
            ],
            "mesh" : 1,
            "name" : "Base",
            "rotation" : [
                0.0,
                -0.7031627893447876,
                -0.0,
                0.7110289335250854
            ],
            "scale" : [
                -0.4104800224304199,
                -0.050799012184143066,
                -0.4104800224304199
            ]
        },
        {
            "children" : [
                1,
                4
            ],
            "mesh" : 0,
            "name" : "Braccio1",
            "rotation" : [
                -0.0,
                1.0,
                0.0,
                6.017430442817329e-10
            ],
            "scale" : [
                -0.17483234405517578,
                -3.0614519119262695,
                -0.3869270384311676
            ],
            "translation" : [
                -1.0913936421275139e-10,
                -5.703175067901611,
                0.006488983519375324
            ]
        },
        {
            "children" : [
                0,
                7
            ],
            "mesh" : 2,
            "name" : "Braccio2",
            "rotation" : [
                0.0,
                6.914930406054509e-09,
                -0.7071068286895752,
                0.7071067690849304
            ],
            "scale" : [
                0.4494904577732086,
                1.2121822834014893,
                0.44013115763664246
            ],
            "translation" : [
                -0.03144147992134094,
                15.904067039489746,
                -0.058664366602897644
            ]
        },
        {
            "mesh" : 4,
            "name" : "Coso",
            "rotation" : [
                -0.5522813200950623,
                0.44782641530036926,
                -0.44269487261772156,
                0.5463131070137024
            ],
            "scale" : [
                0.06990418583154678,
                0.08699248731136322,
                0.06990419328212738
            ],
            "translation" : [
                0.00719045102596283,
                0.0019277334213256836,
                0.01559184119105339
            ]
        },
        {
            "mesh" : 3,
            "name" : "Coso.001",
            "rotation" : [
                -0.44876667857170105,
                -0.5515171885490417,
                0.5455578565597534,
                0.4436257481575012
            ],
            "scale" : [
                0.1607663929462433,
                0.20006635785102844,
                0.16076646745204926
            ],
            "translation" : [
                -0.049343839287757874,
                1.3569178581237793,
                -0.019283179193735123
            ]
        },
        {
            "mesh" : 5,
            "name" : "mano",
            "rotation" : [
                0.5,
                0.5000000596046448,
                0.5,
                0.4999999701976776
            ],
            "scale" : [
                2.0288662910461426,
                0.12370342016220093,
                2.5248289108276367
            ],
            "translation" : [
                0.042449951171875,
                0.0689588114619255,
                -18.0548038482666
            ]
        },
        {
            "children" : [
                6
            ],
            "name" : "Armature_Bone",
            "rotation" : [
                3.3838080781833924e-08,
                3.9972590570869215e-08,
                0.00309683452360332,
                0.9999952912330627
            ],
            "scale" : [
                1.000000238418579,
                1.000000238418579,
                1.0000001192092896
            ],
            "translation" : [
                -2.980232594040899e-08,
                -4.76837158203125e-07,
                -1.1368683772161603e-13
            ]
        },
        {
            "children" : [
                5
            ],
            "name" : "Armature.001_Bone",
            "rotation" : [
                -1.0625854862666984e-08,
                4.0268215428795884e-08,
                0.009101593866944313,
                0.9999585747718811
            ],
            "scale" : [
                0.9999999403953552,
                0.9999999403953552,
                1.0
            ],
            "translation" : [
                -2.9802322387695312e-08,
                -5.551118431848233e-17,
                8.881787373374805e-16
            ]
        }
    ],
    "scene" : 0,
    "scenes" : [
        {
            "name" : "Scene",
            "nodes" : [
                2
            ]
        }
    ],
    "skins" : [
        {
            "inverseBindMatrices" : 18,
            "joints" : [
                8
            ],
            "skeleton" : 0
        },
        {
            "inverseBindMatrices" : 19,
            "joints" : [
                9
            ],
            "skeleton" : 1
        }
    ]
}
