{
    "accessors" : [
        {
            "bufferView" : 0,
            "componentType" : 5123,
            "count" : 15012,
            "max" : [
                8608
            ],
            "min" : [
                0
            ],
            "type" : "SCALAR"
        },
        {
            "bufferView" : 1,
            "componentType" : 5126,
            "count" : 8609,
            "max" : [
                1.8796221017837524,
                0.9999923706054688,
                1.8845973014831543
            ],
            "min" : [
                -2.0348541736602783,
                -228.21560668945312,
                -1.6410839557647705
            ],
            "type" : "VEC3"
        },
        {
            "bufferView" : 2,
            "componentType" : 5126,
            "count" : 8609,
            "max" : [
                1.0,
                1.0,
                1.0
            ],
            "min" : [
                -1.0,
                -1.0,
                -1.0
            ],
            "type" : "VEC3"
        },
        {
            "bufferView" : 3,
            "componentType" : 5123,
            "count" : 15225,
            "max" : [
                9708
            ],
            "min" : [
                0
            ],
            "type" : "SCALAR"
        },
        {
            "bufferView" : 4,
            "componentType" : 5126,
            "count" : 9709,
            "max" : [
                1.7256591320037842,
                1.4372644424438477,
                9.36421012878418
            ],
            "min" : [
                -1.772367238998413,
                -1.5651249885559082,
                -18.331584930419922
            ],
            "type" : "VEC3"
        },
        {
            "bufferView" : 5,
            "componentType" : 5126,
            "count" : 9709,
            "max" : [
                0.9999933242797852,
                0.9999915957450867,
                0.9999931454658508
            ],
            "min" : [
                -0.9999933242797852,
                -0.999998152256012,
                -0.9999881982803345
            ],
            "type" : "VEC3"
        },
        {
            "bufferView" : 6,
            "componentType" : 5123,
            "count" : 10008,
            "max" : [
                5433
            ],
            "min" : [
                0
            ],
            "type" : "SCALAR"
        },
        {
            "bufferView" : 7,
            "componentType" : 5126,
            "count" : 5434,
            "max" : [
                0.6627652049064636,
                9.505334854125977,
                0.7364490032196045
            ],
            "min" : [
                -0.7260147929191589,
                -9.444463729858398,
                -1.2879351377487183
            ],
            "type" : "VEC3"
        },
        {
            "bufferView" : 8,
            "componentType" : 5126,
            "count" : 5434,
            "max" : [
                0.9999396800994873,
                0.9959840178489685,
                0.9999372363090515
            ],
            "min" : [
                -0.9999381303787231,
                -0.9959840178489685,
                -0.9999372363090515
            ],
            "type" : "VEC3"
        },
        {
            "bufferView" : 9,
            "componentType" : 5123,
            "count" : 990,
            "max" : [
                193
            ],
            "min" : [
                0
            ],
            "type" : "SCALAR"
        },
        {
            "bufferView" : 10,
            "componentType" : 5126,
            "count" : 194,
            "max" : [
                1.1257803440093994,
                14.1345796585083,
                4.382363796234131
            ],
            "min" : [
                -1.1893413066864014,
                -0.2553468942642212,
                -1.2449109554290771
            ],
            "type" : "VEC3"
        },
        {
            "bufferView" : 11,
            "componentType" : 5126,
            "count" : 194,
            "max" : [
                1.0,
                0.9912106394767761,
                0.9773552417755127
            ],
            "min" : [
                -1.0,
                -0.9979247450828552,
                -0.9793389439582825
            ],
            "type" : "VEC3"
        },
        {
            "bufferView" : 12,
            "componentType" : 5123,
            "count" : 246,
            "max" : [
                51
            ],
            "min" : [
                0
            ],
            "type" : "SCALAR"
        },
        {
            "bufferView" : 13,
            "componentType" : 5126,
            "count" : 52,
            "max" : [
                0.5618786811828613,
                0.3382253646850586,
                0.5219037532806396
            ],
            "min" : [
                -0.6465486884117126,
                -15.170303344726562,
                -3.7217249870300293
            ],
            "type" : "VEC3"
        },
        {
            "bufferView" : 14,
            "componentType" : 5126,
            "count" : 52,
            "max" : [
                0.9927365779876709,
                0.791772186756134,
                0.9717398881912231
            ],
            "min" : [
                -0.9913022518157959,
                -0.20117801427841187,
                -0.9721366167068481
            ],
            "type" : "VEC3"
        },
        {
            "bufferView" : 15,
            "componentType" : 5123,
            "count" : 5214,
            "max" : [
                2643
            ],
            "min" : [
                0
            ],
            "type" : "SCALAR"
        },
        {
            "bufferView" : 16,
            "componentType" : 5126,
            "count" : 2644,
            "max" : [
                2.278637647628784,
                16.979236602783203,
                2.1969850063323975
            ],
            "min" : [
                -2.278637647628784,
                -1.1081434488296509,
                -1.6892406940460205
            ],
            "type" : "VEC3"
        },
        {
            "bufferView" : 17,
            "componentType" : 5126,
            "count" : 2644,
            "max" : [
                1.0,
                1.0,
                1.0
            ],
            "min" : [
                -1.0,
                -1.0,
                -1.0
            ],
            "type" : "VEC3"
        },
        {
            "bufferView" : 18,
            "componentType" : 5126,
            "count" : 1,
            "max" : [
                0.10967645794153214,
                1.2339222604042965e-16,
                7.20382145761114e-16,
                0.0,
                -2.339835790399203e-11,
                -0.13465149700641632,
                0.022309882566332817,
                0.0,
                7.265213346836948e-16,
                -0.017927462235093117,
                -0.10820133984088898,
                0.0,
                4.621277912519872e-05,
                0.018420249223709106,
                -0.0073698535561561584,
                1.0
            ],
            "min" : [
                0.10967645794153214,
                1.2339222604042965e-16,
                7.20382145761114e-16,
                0.0,
                -2.339835790399203e-11,
                -0.13465149700641632,
                0.022309882566332817,
                0.0,
                7.265213346836948e-16,
                -0.017927462235093117,
                -0.10820133984088898,
                0.0,
                4.621277912519872e-05,
                0.018420249223709106,
                -0.0073698535561561584,
                1.0
            ],
            "type" : "MAT4"
        },
        {
            "bufferView" : 19,
            "componentType" : 5126,
            "count" : 1,
            "max" : [
                0.06494767963886261,
                0.0,
                0.0,
                0.0,
                0.0,
                0.07951907068490982,
                -0.01446691993623972,
                0.0,
                0.0,
                0.011625121347606182,
                0.06389880925416946,
                0.0,
                2.9802322387695312e-08,
                -0.010867618024349213,
                0.03202486038208008,
                1.0
            ],
            "min" : [
                0.06494767963886261,
                0.0,
                0.0,
                0.0,
                0.0,
                0.07951907068490982,
                -0.01446691993623972,
                0.0,
                0.0,
                0.011625121347606182,
                0.06389880925416946,
                0.0,
                2.9802322387695312e-08,
                -0.010867618024349213,
                0.03202486038208008,
                1.0
            ],
            "type" : "MAT4"
        }
    ],
    "asset" : {
        "generator" : "Khronos Blender glTF 2.0 exporter",
        "version" : "2.0"
    },
    "bufferViews" : [
        {
            "buffer" : 0,
            "byteLength" : 30024,
            "byteOffset" : 0,
            "target" : 34963
        },
        {
            "buffer" : 0,
            "byteLength" : 103308,
            "byteOffset" : 30024,
            "target" : 34962
        },
        {
            "buffer" : 0,
            "byteLength" : 103308,
            "byteOffset" : 133332,
            "target" : 34962
        },
        {
            "buffer" : 0,
            "byteLength" : 30450,
            "byteOffset" : 236640,
            "target" : 34963
        },
        {
            "buffer" : 0,
            "byteLength" : 116508,
            "byteOffset" : 267092,
            "target" : 34962
        },
        {
            "buffer" : 0,
            "byteLength" : 116508,
            "byteOffset" : 383600,
            "target" : 34962
        },
        {
            "buffer" : 0,
            "byteLength" : 20016,
            "byteOffset" : 500108,
            "target" : 34963
        },
        {
            "buffer" : 0,
            "byteLength" : 65208,
            "byteOffset" : 520124,
            "target" : 34962
        },
        {
            "buffer" : 0,
            "byteLength" : 65208,
            "byteOffset" : 585332,
            "target" : 34962
        },
        {
            "buffer" : 0,
            "byteLength" : 1980,
            "byteOffset" : 650540,
            "target" : 34963
        },
        {
            "buffer" : 0,
            "byteLength" : 2328,
            "byteOffset" : 652520,
            "target" : 34962
        },
        {
            "buffer" : 0,
            "byteLength" : 2328,
            "byteOffset" : 654848,
            "target" : 34962
        },
        {
            "buffer" : 0,
            "byteLength" : 492,
            "byteOffset" : 657176,
            "target" : 34963
        },
        {
            "buffer" : 0,
            "byteLength" : 624,
            "byteOffset" : 657668,
            "target" : 34962
        },
        {
            "buffer" : 0,
            "byteLength" : 624,
            "byteOffset" : 658292,
            "target" : 34962
        },
        {
            "buffer" : 0,
            "byteLength" : 10428,
            "byteOffset" : 658916,
            "target" : 34963
        },
        {
            "buffer" : 0,
            "byteLength" : 31728,
            "byteOffset" : 669344,
            "target" : 34962
        },
        {
            "buffer" : 0,
            "byteLength" : 31728,
            "byteOffset" : 701072,
            "target" : 34962
        },
        {
            "buffer" : 0,
            "byteLength" : 64,
            "byteOffset" : 732800
        },
        {
            "buffer" : 0,
            "byteLength" : 64,
            "byteOffset" : 732864
        }
    ],
    "buffers" : [
        {
            "byteLength" : 732928,
            "uri" : "braccioV5.bin"
        }
    ],
    "meshes" : [
        {
            "name" : "Cylinder.094",
            "primitives" : [
                {
                    "attributes" : {
                        "NORMAL" : 2,
                        "POSITION" : 1
                    },
                    "indices" : 0
                }
            ]
        },
        {
            "name" : "Cylinder.090",
            "primitives" : [
                {
                    "attributes" : {
                        "NORMAL" : 5,
                        "POSITION" : 4
                    },
                    "indices" : 3
                }
            ]
        },
        {
            "name" : "Cylinder.081",
            "primitives" : [
                {
                    "attributes" : {
                        "NORMAL" : 8,
                        "POSITION" : 7
                    },
                    "indices" : 6
                }
            ]
        },
        {
            "name" : "Cylinder.091",
            "primitives" : [
                {
                    "attributes" : {
                        "NORMAL" : 11,
                        "POSITION" : 10
                    },
                    "indices" : 9
                }
            ]
        },
        {
            "name" : "Cylinder.001",
            "primitives" : [
                {
                    "attributes" : {
                        "NORMAL" : 14,
                        "POSITION" : 13
                    },
                    "indices" : 12
                }
            ]
        },
        {
            "name" : "Cube.019",
            "primitives" : [
                {
                    "attributes" : {
                        "NORMAL" : 17,
                        "POSITION" : 16
                    },
                    "indices" : 15
                }
            ]
        }
    ],
    "nodes" : [
        {
            "children" : [
                8
            ],
            "name" : "Armature",
            "rotation" : [
                -0.9961596727371216,
                8.399551193472021e-11,
                1.0343059742012883e-09,
                0.0875558853149414
            ],
            "scale" : [
                7.874837875366211,
                6.374163627624512,
                7.837477684020996
            ],
            "translation" : [
                -0.1616780012845993,
                -0.9708805084228516,
                8.205229759216309
            ]
        },
        {
            "children" : [
                9
            ],
            "name" : "Armature.001",
            "rotation" : [
                0.08987745642662048,
                0.0,
                -0.0,
                0.9959529042243958
            ],
            "scale" : [
                12.877264022827148,
                5.938377380371094,
                5.82257604598999
            ],
            "translation" : [
                0.0,
                4.501583576202393,
                1.6347960233688354
            ]
        },
        {
            "mesh" : 4,
            "name" : "Barra",
            "rotation" : [
                0.6436875462532043,
                2.563476816954649e-15,
                2.13224535548567e-15,
                0.7652884721755981
            ],
            "scale" : [
                0.10967645794153214,
                0.1364871859550476,
                0.10967645049095154
            ],
            "translation" : [
                4.6212775487219915e-05,
                -0.007516590412706137,
                0.9816393852233887
            ]
        },
        {
            "children" : [
                4
            ],
            "mesh" : 2,
            "name" : "Base",
            "rotation" : [
                0.7071068286895752,
                0.7071068286895752,
                0.0,
                0.0
            ],
            "scale" : [
                -0.5205848217010498,
                -0.0644250437617302,
                -0.5205848217010498
            ]
        },
        {
            "children" : [
                1,
                5
            ],
            "mesh" : 5,
            "name" : "Braccio1",
            "rotation" : [
                0.7071068286895752,
                0.7071067094802856,
                0.0,
                0.0
            ],
            "scale" : [
                -1.2053735256195068,
                -0.3232613801956177,
                -0.33013543486595154
            ],
            "translation" : [
                -0.31075319647789,
                1.0976072672974624e-07,
                -0.22806742787361145
            ]
        },
        {
            "children" : [
                0,
                6
            ],
            "mesh" : 1,
            "name" : "Braccio2",
            "rotation" : [
                0.0,
                0.0,
                -1.1265298416329728e-10,
                1.0
            ],
            "scale" : [
                0.9616403579711914,
                0.5522329807281494,
                0.43451568484306335
            ],
            "translation" : [
                0.15547609329223633,
                15.996729850769043,
                -0.06437498331069946
            ]
        },
        {
            "mesh" : 0,
            "name" : "mano",
            "rotation" : [
                0.7071068286895752,
                -7.54270604308438e-11,
                4.8704627136908485e-11,
                0.7071068286895752
            ],
            "scale" : [
                1.5789871215820312,
                0.07736211270093918,
                1.2688201665878296
            ],
            "translation" : [
                -0.07881741970777512,
                0.3005409240722656,
                -18.376508712768555
            ]
        },
        {
            "mesh" : 3,
            "name" : "Pistone",
            "rotation" : [
                -0.7652884125709534,
                0.0,
                -0.0,
                0.6436876058578491
            ],
            "scale" : [
                0.06494767963886261,
                0.0808243602514267,
                0.0649476870894432
            ],
            "translation" : [
                2.9802322387695312e-08,
                0.03193936496973038,
                1.0111165046691895
            ]
        },
        {
            "children" : [
                2
            ],
            "name" : "Armature_Bone"
        },
        {
            "children" : [
                7
            ],
            "name" : "Armature.001_Bone"
        }
    ],
    "scene" : 0,
    "scenes" : [
        {
            "name" : "Scene",
            "nodes" : [
                3
            ]
        }
    ],
    "skins" : [
        {
            "inverseBindMatrices" : 18,
            "joints" : [
                8
            ],
            "skeleton" : 0
        },
        {
            "inverseBindMatrices" : 19,
            "joints" : [
                9
            ],
            "skeleton" : 1
        }
    ]
}
